<mxfile host="app.diagrams.net" modified="2023-09-19T02:32:39.920Z" agent="Mozilla/5.0 (Windows NT 10.0; Win64; x64) AppleWebKit/537.36 (KHTML, like Gecko) Chrome/116.0.0.0 Safari/537.36" version="21.7.5" etag="urOJQZOWIDDfsKUxLM45" type="device">
  <diagram id="C5RBs43oDa-KdzZeNtuy" name="Page-1">
    <mxGraphModel dx="880" dy="438" grid="1" gridSize="10" guides="1" tooltips="1" connect="1" arrows="1" fold="1" page="1" pageScale="1" pageWidth="827" pageHeight="1169" math="0" shadow="0">
      <root>
        <mxCell id="WIyWlLk6GJQsqaUBKTNV-0" />
        <mxCell id="WIyWlLk6GJQsqaUBKTNV-1" parent="WIyWlLk6GJQsqaUBKTNV-0" />
        <mxCell id="sRLlW_jOxRREStjXcmUt-7" style="edgeStyle=orthogonalEdgeStyle;rounded=0;orthogonalLoop=1;jettySize=auto;html=1;entryX=0.5;entryY=0;entryDx=0;entryDy=0;" edge="1" parent="WIyWlLk6GJQsqaUBKTNV-1" source="sRLlW_jOxRREStjXcmUt-0" target="sRLlW_jOxRREStjXcmUt-2">
          <mxGeometry relative="1" as="geometry" />
        </mxCell>
        <mxCell id="sRLlW_jOxRREStjXcmUt-0" value="start" style="strokeWidth=2;html=1;shape=mxgraph.flowchart.terminator;whiteSpace=wrap;" vertex="1" parent="WIyWlLk6GJQsqaUBKTNV-1">
          <mxGeometry x="90" y="50" width="100" height="60" as="geometry" />
        </mxCell>
        <mxCell id="sRLlW_jOxRREStjXcmUt-1" value="end" style="strokeWidth=2;html=1;shape=mxgraph.flowchart.terminator;whiteSpace=wrap;" vertex="1" parent="WIyWlLk6GJQsqaUBKTNV-1">
          <mxGeometry x="90" y="540" width="100" height="60" as="geometry" />
        </mxCell>
        <mxCell id="sRLlW_jOxRREStjXcmUt-8" style="edgeStyle=orthogonalEdgeStyle;rounded=0;orthogonalLoop=1;jettySize=auto;html=1;exitX=0.5;exitY=1;exitDx=0;exitDy=0;entryX=0.5;entryY=0;entryDx=0;entryDy=0;entryPerimeter=0;" edge="1" parent="WIyWlLk6GJQsqaUBKTNV-1" source="sRLlW_jOxRREStjXcmUt-2" target="sRLlW_jOxRREStjXcmUt-3">
          <mxGeometry relative="1" as="geometry" />
        </mxCell>
        <mxCell id="sRLlW_jOxRREStjXcmUt-2" value="input n" style="shape=parallelogram;html=1;strokeWidth=2;perimeter=parallelogramPerimeter;whiteSpace=wrap;rounded=1;arcSize=12;size=0.23;" vertex="1" parent="WIyWlLk6GJQsqaUBKTNV-1">
          <mxGeometry x="90" y="160" width="100" height="60" as="geometry" />
        </mxCell>
        <mxCell id="sRLlW_jOxRREStjXcmUt-9" style="edgeStyle=orthogonalEdgeStyle;rounded=0;orthogonalLoop=1;jettySize=auto;html=1;entryX=0.5;entryY=0;entryDx=0;entryDy=0;" edge="1" parent="WIyWlLk6GJQsqaUBKTNV-1" source="sRLlW_jOxRREStjXcmUt-3" target="sRLlW_jOxRREStjXcmUt-4">
          <mxGeometry relative="1" as="geometry" />
        </mxCell>
        <mxCell id="sRLlW_jOxRREStjXcmUt-14" value="true" style="edgeLabel;html=1;align=center;verticalAlign=middle;resizable=0;points=[];" vertex="1" connectable="0" parent="sRLlW_jOxRREStjXcmUt-9">
          <mxGeometry x="-0.28" y="-2" relative="1" as="geometry">
            <mxPoint as="offset" />
          </mxGeometry>
        </mxCell>
        <mxCell id="sRLlW_jOxRREStjXcmUt-11" style="edgeStyle=orthogonalEdgeStyle;rounded=0;orthogonalLoop=1;jettySize=auto;html=1;" edge="1" parent="WIyWlLk6GJQsqaUBKTNV-1" source="sRLlW_jOxRREStjXcmUt-3" target="sRLlW_jOxRREStjXcmUt-5">
          <mxGeometry relative="1" as="geometry" />
        </mxCell>
        <mxCell id="sRLlW_jOxRREStjXcmUt-13" value="false" style="edgeLabel;html=1;align=center;verticalAlign=middle;resizable=0;points=[];" vertex="1" connectable="0" parent="sRLlW_jOxRREStjXcmUt-11">
          <mxGeometry x="-0.3913" y="-2" relative="1" as="geometry">
            <mxPoint as="offset" />
          </mxGeometry>
        </mxCell>
        <mxCell id="sRLlW_jOxRREStjXcmUt-3" value="n % 7 == 0 ?" style="strokeWidth=2;html=1;shape=mxgraph.flowchart.decision;whiteSpace=wrap;" vertex="1" parent="WIyWlLk6GJQsqaUBKTNV-1">
          <mxGeometry x="90" y="270" width="100" height="100" as="geometry" />
        </mxCell>
        <mxCell id="sRLlW_jOxRREStjXcmUt-10" style="edgeStyle=orthogonalEdgeStyle;rounded=0;orthogonalLoop=1;jettySize=auto;html=1;entryX=0.5;entryY=0;entryDx=0;entryDy=0;entryPerimeter=0;" edge="1" parent="WIyWlLk6GJQsqaUBKTNV-1" source="sRLlW_jOxRREStjXcmUt-4" target="sRLlW_jOxRREStjXcmUt-1">
          <mxGeometry relative="1" as="geometry" />
        </mxCell>
        <mxCell id="sRLlW_jOxRREStjXcmUt-4" value="return true" style="shape=parallelogram;html=1;strokeWidth=2;perimeter=parallelogramPerimeter;whiteSpace=wrap;rounded=1;arcSize=12;size=0.23;" vertex="1" parent="WIyWlLk6GJQsqaUBKTNV-1">
          <mxGeometry x="90" y="430" width="100" height="60" as="geometry" />
        </mxCell>
        <mxCell id="sRLlW_jOxRREStjXcmUt-12" style="edgeStyle=orthogonalEdgeStyle;rounded=0;orthogonalLoop=1;jettySize=auto;html=1;entryX=1;entryY=0.5;entryDx=0;entryDy=0;entryPerimeter=0;" edge="1" parent="WIyWlLk6GJQsqaUBKTNV-1" source="sRLlW_jOxRREStjXcmUt-5" target="sRLlW_jOxRREStjXcmUt-1">
          <mxGeometry relative="1" as="geometry">
            <Array as="points">
              <mxPoint x="280" y="570" />
            </Array>
          </mxGeometry>
        </mxCell>
        <mxCell id="sRLlW_jOxRREStjXcmUt-5" value="return false" style="shape=parallelogram;html=1;strokeWidth=2;perimeter=parallelogramPerimeter;whiteSpace=wrap;rounded=1;arcSize=12;size=0.23;" vertex="1" parent="WIyWlLk6GJQsqaUBKTNV-1">
          <mxGeometry x="230" y="430" width="100" height="60" as="geometry" />
        </mxCell>
      </root>
    </mxGraphModel>
  </diagram>
</mxfile>
